<svg width="150" height="150" viewBox="0 0 150 150" fill="none" xmlns="http://www.w3.org/2000/svg">
<path d="M13.0481 39.2321L75 3.4641L136.952 39.2321V110.768L75 146.536L13.0481 110.768V39.2321Z" stroke="#33323D" stroke-width="6"/>
<path d="M55.048 88.216C52.552 88.216 50.296 87.664 48.28 86.56C46.288 85.456 44.716 83.932 43.564 81.988C42.436 80.02 41.872 77.824 41.872 75.4C41.872 72.976 42.436 70.792 43.564 68.848C44.716 66.88 46.3 65.344 48.316 64.24C50.332 63.136 52.588 62.584 55.084 62.584C56.956 62.584 58.684 62.896 60.268 63.52C61.852 64.144 63.196 65.056 64.3 66.256L62.608 67.948C60.64 65.956 58.156 64.96 55.156 64.96C53.164 64.96 51.352 65.416 49.72 66.328C48.088 67.24 46.804 68.488 45.868 70.072C44.956 71.656 44.5 73.432 44.5 75.4C44.5 77.368 44.956 79.144 45.868 80.728C46.804 82.312 48.088 83.56 49.72 84.472C51.352 85.384 53.164 85.84 55.156 85.84C58.18 85.84 60.664 84.832 62.608 82.816L64.3 84.508C63.196 85.708 61.84 86.632 60.232 87.28C58.648 87.904 56.92 88.216 55.048 88.216ZM76.7864 88.216C74.9144 88.216 73.1144 87.916 71.3864 87.316C69.6824 86.716 68.3624 85.924 67.4264 84.94L68.4704 82.888C69.3824 83.8 70.5944 84.544 72.1064 85.12C73.6184 85.672 75.1784 85.948 76.7864 85.948C79.0424 85.948 80.7344 85.54 81.8624 84.724C82.9904 83.884 83.5544 82.804 83.5544 81.484C83.5544 80.476 83.2424 79.672 82.6184 79.072C82.0184 78.472 81.2744 78.016 80.3864 77.704C79.4984 77.368 78.2624 77.008 76.6784 76.624C74.7824 76.144 73.2704 75.688 72.1424 75.256C71.0144 74.8 70.0424 74.116 69.2264 73.204C68.4344 72.292 68.0384 71.056 68.0384 69.496C68.0384 68.224 68.3744 67.072 69.0464 66.04C69.7184 64.984 70.7504 64.144 72.1424 63.52C73.5344 62.896 75.2624 62.584 77.3264 62.584C78.7664 62.584 80.1704 62.788 81.5384 63.196C82.9304 63.58 84.1304 64.12 85.1384 64.816L84.2384 66.94C83.1824 66.244 82.0544 65.728 80.8544 65.392C79.6544 65.032 78.4784 64.852 77.3264 64.852C75.1184 64.852 73.4504 65.284 72.3224 66.148C71.2184 66.988 70.6664 68.08 70.6664 69.424C70.6664 70.432 70.9664 71.248 71.5664 71.872C72.1904 72.472 72.9584 72.94 73.8704 73.276C74.8064 73.588 76.0544 73.936 77.6144 74.32C79.4624 74.776 80.9504 75.232 82.0784 75.688C83.2304 76.12 84.2024 76.792 84.9944 77.704C85.7864 78.592 86.1824 79.804 86.1824 81.34C86.1824 82.612 85.8344 83.776 85.1384 84.832C84.4664 85.864 83.4224 86.692 82.0064 87.316C80.5904 87.916 78.8504 88.216 76.7864 88.216ZM98.9348 88.216C97.0628 88.216 95.2628 87.916 93.5348 87.316C91.8308 86.716 90.5108 85.924 89.5748 84.94L90.6188 82.888C91.5308 83.8 92.7428 84.544 94.2548 85.12C95.7668 85.672 97.3268 85.948 98.9348 85.948C101.191 85.948 102.883 85.54 104.011 84.724C105.139 83.884 105.703 82.804 105.703 81.484C105.703 80.476 105.391 79.672 104.767 79.072C104.167 78.472 103.423 78.016 102.535 77.704C101.647 77.368 100.411 77.008 98.8268 76.624C96.9308 76.144 95.4188 75.688 94.2908 75.256C93.1628 74.8 92.1908 74.116 91.3748 73.204C90.5828 72.292 90.1868 71.056 90.1868 69.496C90.1868 68.224 90.5228 67.072 91.1948 66.04C91.8668 64.984 92.8988 64.144 94.2908 63.52C95.6828 62.896 97.4108 62.584 99.4748 62.584C100.915 62.584 102.319 62.788 103.687 63.196C105.079 63.58 106.279 64.12 107.287 64.816L106.387 66.94C105.331 66.244 104.203 65.728 103.003 65.392C101.803 65.032 100.627 64.852 99.4748 64.852C97.2668 64.852 95.5988 65.284 94.4708 66.148C93.3668 66.988 92.8148 68.08 92.8148 69.424C92.8148 70.432 93.1148 71.248 93.7148 71.872C94.3388 72.472 95.1068 72.94 96.0188 73.276C96.9548 73.588 98.2028 73.936 99.7628 74.32C101.611 74.776 103.099 75.232 104.227 75.688C105.379 76.12 106.351 76.792 107.143 77.704C107.935 78.592 108.331 79.804 108.331 81.34C108.331 82.612 107.983 83.776 107.287 84.832C106.615 85.864 105.571 86.692 104.155 87.316C102.739 87.916 100.999 88.216 98.9348 88.216Z" fill="#33323D"/>
</svg>
