<svg width="150" height="150" viewBox="0 0 150 150" fill="none" xmlns="http://www.w3.org/2000/svg">
<path d="M13.0481 39.2321L75 3.4641L136.952 39.2321V110.768L75 146.536L13.0481 110.768V39.2321Z" stroke="#33323D" stroke-width="6"/>
<path d="M47.164 62.8V88H44.536V76.372H28.768V88H26.104V62.8H28.768V74.032H44.536V62.8H47.164ZM60.2852 65.104H51.4292V62.8H71.8052V65.104H62.9492V88H60.2852V65.104ZM102.233 62.8V88H99.677V67.84L89.777 84.796H88.517L78.617 67.948V88H76.061V62.8H78.257L89.201 81.484L100.037 62.8H102.233ZM110.444 62.8H113.108V85.696H127.22V88H110.444V62.8Z" fill="#33323D"/>
</svg>
