<svg width="150" height="150" viewBox="0 0 150 150" fill="none" xmlns="http://www.w3.org/2000/svg">
<path d="M13.0481 39.2321L75 3.4641L136.952 39.2321V110.768L75 146.536L13.0481 110.768V39.2321Z" stroke="#33323D" stroke-width="6"/>
<path d="M44.312 88L38.552 79.9C37.904 79.972 37.232 80.008 36.536 80.008H29.768V88H27.104V62.8H36.536C39.752 62.8 42.272 63.568 44.096 65.104C45.92 66.64 46.832 68.752 46.832 71.44C46.832 73.408 46.328 75.076 45.32 76.444C44.336 77.788 42.92 78.76 41.072 79.36L47.228 88H44.312ZM36.464 77.74C38.96 77.74 40.868 77.188 42.188 76.084C43.508 74.98 44.168 73.432 44.168 71.44C44.168 69.4 43.508 67.84 42.188 66.76C40.868 65.656 38.96 65.104 36.464 65.104H29.768V77.74H36.464ZM69.0676 79.324H53.2276C53.3716 81.292 54.1276 82.888 55.4956 84.112C56.8636 85.312 58.5916 85.912 60.6796 85.912C61.8556 85.912 62.9356 85.708 63.9196 85.3C64.9036 84.868 65.7556 84.244 66.4756 83.428L67.9156 85.084C67.0756 86.092 66.0196 86.86 64.7476 87.388C63.4996 87.916 62.1196 88.18 60.6076 88.18C58.6636 88.18 56.9356 87.772 55.4236 86.956C53.9356 86.116 52.7716 84.964 51.9316 83.5C51.0916 82.036 50.6716 80.38 50.6716 78.532C50.6716 76.684 51.0676 75.028 51.8596 73.564C52.6756 72.1 53.7796 70.96 55.1716 70.144C56.5876 69.328 58.1716 68.92 59.9236 68.92C61.6756 68.92 63.2476 69.328 64.6396 70.144C66.0316 70.96 67.1236 72.1 67.9156 73.564C68.7076 75.004 69.1036 76.66 69.1036 78.532L69.0676 79.324ZM59.9236 71.116C58.0996 71.116 56.5636 71.704 55.3156 72.88C54.0916 74.032 53.3956 75.544 53.2276 77.416H66.6556C66.4876 75.544 65.7796 74.032 64.5316 72.88C63.3076 71.704 61.7716 71.116 59.9236 71.116ZM80.4028 68.92C82.8748 68.92 84.7708 69.544 86.0908 70.792C87.4108 72.016 88.0708 73.84 88.0708 76.264V88H85.6228V85.048C85.0468 86.032 84.1948 86.8 83.0668 87.352C81.9628 87.904 80.6428 88.18 79.1068 88.18C76.9948 88.18 75.3148 87.676 74.0668 86.668C72.8188 85.66 72.1948 84.328 72.1948 82.672C72.1948 81.064 72.7708 79.768 73.9228 78.784C75.0988 77.8 76.9588 77.308 79.5028 77.308H85.5148V76.156C85.5148 74.524 85.0588 73.288 84.1468 72.448C83.2348 71.584 81.9028 71.152 80.1508 71.152C78.9508 71.152 77.7988 71.356 76.6948 71.764C75.5908 72.148 74.6428 72.688 73.8508 73.384L72.6988 71.476C73.6588 70.66 74.8108 70.036 76.1548 69.604C77.4988 69.148 78.9148 68.92 80.4028 68.92ZM79.5028 86.164C80.9428 86.164 82.1788 85.84 83.2108 85.192C84.2428 84.52 85.0108 83.56 85.5148 82.312V79.216H79.5748C76.3348 79.216 74.7148 80.344 74.7148 82.6C74.7148 83.704 75.1348 84.58 75.9748 85.228C76.8148 85.852 77.9908 86.164 79.5028 86.164ZM102.932 88.18C101.06 88.18 99.3795 87.772 97.8915 86.956C96.4275 86.14 95.2755 85 94.4355 83.536C93.5955 82.048 93.1755 80.38 93.1755 78.532C93.1755 76.684 93.5955 75.028 94.4355 73.564C95.2755 72.1 96.4275 70.96 97.8915 70.144C99.3795 69.328 101.06 68.92 102.932 68.92C104.564 68.92 106.016 69.244 107.288 69.892C108.584 70.516 109.604 71.44 110.348 72.664L108.44 73.96C107.816 73.024 107.024 72.328 106.064 71.872C105.104 71.392 104.06 71.152 102.932 71.152C101.564 71.152 100.328 71.464 99.2235 72.088C98.1435 72.688 97.2915 73.552 96.6675 74.68C96.0675 75.808 95.7675 77.092 95.7675 78.532C95.7675 79.996 96.0675 81.292 96.6675 82.42C97.2915 83.524 98.1435 84.388 99.2235 85.012C100.328 85.612 101.564 85.912 102.932 85.912C104.06 85.912 105.104 85.684 106.064 85.228C107.024 84.772 107.816 84.076 108.44 83.14L110.348 84.436C109.604 85.66 108.584 86.596 107.288 87.244C105.992 87.868 104.54 88.18 102.932 88.18ZM125.552 86.848C125.072 87.28 124.472 87.616 123.752 87.856C123.056 88.072 122.324 88.18 121.556 88.18C119.78 88.18 118.412 87.7 117.452 86.74C116.492 85.78 116.012 84.424 116.012 82.672V71.224H112.628V69.064H116.012V64.924H118.568V69.064H124.328V71.224H118.568V82.528C118.568 83.656 118.844 84.52 119.396 85.12C119.972 85.696 120.788 85.984 121.844 85.984C122.372 85.984 122.876 85.9 123.356 85.732C123.86 85.564 124.292 85.324 124.652 85.012L125.552 86.848Z" fill="#33323D"/>
</svg>
