<svg width="150" height="150" viewBox="0 0 150 150" fill="none" xmlns="http://www.w3.org/2000/svg">
<path d="M13.0481 39.2321L75 3.4641L136.952 39.2321V110.768L75 146.536L13.0481 110.768V39.2321Z" stroke="#33323D" stroke-width="6"/>
<path d="M62.2122 66.216C60.7722 66.216 59.4402 65.904 58.2162 65.28C56.9922 64.656 55.9962 63.768 55.2282 62.616L56.8122 60.816C58.2042 62.88 60.0162 63.912 62.2482 63.912C65.3682 63.912 66.9282 62.064 66.9282 58.368V43.104H57.7122V40.8H69.5562V58.26C69.5562 60.9 68.9322 62.892 67.6842 64.236C66.4602 65.556 64.6362 66.216 62.2122 66.216ZM84.4954 66.216C82.6234 66.216 80.8234 65.916 79.0954 65.316C77.3914 64.716 76.0714 63.924 75.1354 62.94L76.1794 60.888C77.0914 61.8 78.3034 62.544 79.8154 63.12C81.3274 63.672 82.8874 63.948 84.4954 63.948C86.7514 63.948 88.4434 63.54 89.5714 62.724C90.6994 61.884 91.2634 60.804 91.2634 59.484C91.2634 58.476 90.9514 57.672 90.3274 57.072C89.7274 56.472 88.9834 56.016 88.0954 55.704C87.2074 55.368 85.9714 55.008 84.3874 54.624C82.4914 54.144 80.9794 53.688 79.8514 53.256C78.7234 52.8 77.7514 52.116 76.9354 51.204C76.1434 50.292 75.7474 49.056 75.7474 47.496C75.7474 46.224 76.0834 45.072 76.7554 44.04C77.4274 42.984 78.4594 42.144 79.8514 41.52C81.2434 40.896 82.9714 40.584 85.0354 40.584C86.4754 40.584 87.8794 40.788 89.2474 41.196C90.6394 41.58 91.8394 42.12 92.8474 42.816L91.9474 44.94C90.8914 44.244 89.7634 43.728 88.5634 43.392C87.3634 43.032 86.1874 42.852 85.0354 42.852C82.8274 42.852 81.1594 43.284 80.0314 44.148C78.9274 44.988 78.3754 46.08 78.3754 47.424C78.3754 48.432 78.6754 49.248 79.2754 49.872C79.8994 50.472 80.6674 50.94 81.5794 51.276C82.5154 51.588 83.7634 51.936 85.3234 52.32C87.1714 52.776 88.6594 53.232 89.7874 53.688C90.9394 54.12 91.9114 54.792 92.7034 55.704C93.4954 56.592 93.8914 57.804 93.8914 59.34C93.8914 60.612 93.5434 61.776 92.8474 62.832C92.1754 63.864 91.1314 64.692 89.7154 65.316C88.2994 65.916 86.5594 66.216 84.4954 66.216ZM63.34 107.696V110H45.52V84.8H62.8V87.104H48.184V96.068H61.216V98.336H48.184V107.696H63.34ZM76.55 110.216C74.678 110.216 72.878 109.916 71.15 109.316C69.446 108.716 68.126 107.924 67.19 106.94L68.234 104.888C69.146 105.8 70.358 106.544 71.87 107.12C73.382 107.672 74.942 107.948 76.55 107.948C78.806 107.948 80.498 107.54 81.626 106.724C82.754 105.884 83.318 104.804 83.318 103.484C83.318 102.476 83.006 101.672 82.382 101.072C81.782 100.472 81.038 100.016 80.15 99.704C79.262 99.368 78.026 99.008 76.442 98.624C74.546 98.144 73.034 97.688 71.906 97.256C70.778 96.8 69.806 96.116 68.99 95.204C68.198 94.292 67.802 93.056 67.802 91.496C67.802 90.224 68.138 89.072 68.81 88.04C69.482 86.984 70.514 86.144 71.906 85.52C73.298 84.896 75.026 84.584 77.09 84.584C78.53 84.584 79.934 84.788 81.302 85.196C82.694 85.58 83.894 86.12 84.902 86.816L84.002 88.94C82.946 88.244 81.818 87.728 80.618 87.392C79.418 87.032 78.242 86.852 77.09 86.852C74.882 86.852 73.214 87.284 72.086 88.148C70.982 88.988 70.43 90.08 70.43 91.424C70.43 92.432 70.73 93.248 71.33 93.872C71.954 94.472 72.722 94.94 73.634 95.276C74.57 95.588 75.818 95.936 77.378 96.32C79.226 96.776 80.714 97.232 81.842 97.688C82.994 98.12 83.966 98.792 84.758 99.704C85.55 100.592 85.946 101.804 85.946 103.34C85.946 104.612 85.598 105.776 84.902 106.832C84.23 107.864 83.186 108.692 81.77 109.316C80.354 109.916 78.614 110.216 76.55 110.216ZM99.9585 94.916C101.614 94.916 103.078 95.228 104.35 95.852C105.646 96.476 106.654 97.364 107.374 98.516C108.094 99.644 108.454 100.964 108.454 102.476C108.454 104.012 108.082 105.368 107.338 106.544C106.594 107.72 105.562 108.632 104.242 109.28C102.946 109.904 101.482 110.216 99.8505 110.216C96.5145 110.216 93.9585 109.124 92.1825 106.94C90.4065 104.732 89.5185 101.624 89.5185 97.616C89.5185 94.808 89.9985 92.432 90.9585 90.488C91.9185 88.544 93.2625 87.08 94.9905 86.096C96.7185 85.088 98.7345 84.584 101.038 84.584C103.534 84.584 105.526 85.04 107.014 85.952L105.97 88.04C104.77 87.248 103.138 86.852 101.074 86.852C98.2905 86.852 96.1065 87.74 94.5225 89.516C92.9385 91.268 92.1465 93.824 92.1465 97.184C92.1465 97.784 92.1825 98.468 92.2545 99.236C92.8785 97.868 93.8745 96.812 95.2425 96.068C96.6105 95.3 98.1825 94.916 99.9585 94.916ZM99.7425 108.02C101.566 108.02 103.042 107.528 104.17 106.544C105.322 105.536 105.898 104.204 105.898 102.548C105.898 100.892 105.322 99.572 104.17 98.588C103.042 97.604 101.506 97.112 99.5625 97.112C98.2905 97.112 97.1625 97.352 96.1785 97.832C95.2185 98.312 94.4625 98.972 93.9105 99.812C93.3585 100.652 93.0825 101.588 93.0825 102.62C93.0825 103.58 93.3345 104.468 93.8385 105.284C94.3665 106.1 95.1345 106.76 96.1425 107.264C97.1505 107.768 98.3505 108.02 99.7425 108.02Z" fill="#33323D"/>
</svg>
