<svg width="191" height="93" viewBox="0 0 191 93" fill="none" xmlns="http://www.w3.org/2000/svg">
<path d="M20.052 26.324H4.212C4.356 28.292 5.112 29.888 6.48 31.112C7.848 32.312 9.576 32.912 11.664 32.912C12.84 32.912 13.92 32.708 14.904 32.3C15.888 31.868 16.74 31.244 17.46 30.428L18.9 32.084C18.06 33.092 17.004 33.86 15.732 34.388C14.484 34.916 13.104 35.18 11.592 35.18C9.648 35.18 7.92 34.772 6.408 33.956C4.92 33.116 3.756 31.964 2.916 30.5C2.076 29.036 1.656 27.38 1.656 25.532C1.656 23.684 2.052 22.028 2.844 20.564C3.66 19.1 4.764 17.96 6.156 17.144C7.572 16.328 9.156 15.92 10.908 15.92C12.66 15.92 14.232 16.328 15.624 17.144C17.016 17.96 18.108 19.1 18.9 20.564C19.692 22.004 20.088 23.66 20.088 25.532L20.052 26.324ZM10.908 18.116C9.084 18.116 7.548 18.704 6.3 19.88C5.076 21.032 4.38 22.544 4.212 24.416H17.64C17.472 22.544 16.764 21.032 15.516 19.88C14.292 18.704 12.756 18.116 10.908 18.116Z" fill="#33323D"/>
<path d="M37.564 16.064H40.12V35H37.564V16.064ZM38.86 11.924C38.332 11.924 37.888 11.744 37.528 11.384C37.168 11.024 36.988 10.592 36.988 10.088C36.988 9.608 37.168 9.188 37.528 8.828C37.888 8.468 38.332 8.288 38.86 8.288C39.388 8.288 39.832 8.468 40.192 8.828C40.552 9.164 40.732 9.572 40.732 10.052C40.732 10.58 40.552 11.024 40.192 11.384C39.832 11.744 39.388 11.924 38.86 11.924ZM46.424 42.164C45.632 42.164 44.888 42.056 44.192 41.84C43.472 41.648 42.884 41.348 42.428 40.94L43.328 38.996C44.072 39.644 45.056 39.968 46.28 39.968C47.288 39.968 48.056 39.668 48.584 39.068C49.136 38.468 49.412 37.58 49.412 36.404V16.064H51.968V36.404C51.968 38.18 51.488 39.584 50.528 40.616C49.568 41.648 48.2 42.164 46.424 42.164ZM50.708 11.888C50.18 11.888 49.736 11.708 49.376 11.348C49.016 10.988 48.836 10.556 48.836 10.052C48.836 9.572 49.016 9.152 49.376 8.792C49.736 8.432 50.18 8.252 50.708 8.252C51.236 8.252 51.68 8.432 52.04 8.792C52.4 9.128 52.58 9.536 52.58 10.016C52.58 10.544 52.4 10.988 52.04 11.348C51.68 11.708 51.236 11.888 50.708 11.888ZM67.7349 15.92C70.2069 15.92 72.1029 16.544 73.4229 17.792C74.7429 19.016 75.4029 20.84 75.4029 23.264V35H72.9549V32.048C72.3789 33.032 71.5269 33.8 70.3989 34.352C69.2949 34.904 67.9749 35.18 66.4389 35.18C64.3269 35.18 62.6469 34.676 61.3989 33.668C60.1509 32.66 59.5269 31.328 59.5269 29.672C59.5269 28.064 60.1029 26.768 61.2549 25.784C62.4309 24.8 64.2909 24.308 66.8349 24.308H72.8469V23.156C72.8469 21.524 72.3909 20.288 71.4789 19.448C70.5669 18.584 69.2349 18.152 67.4829 18.152C66.2829 18.152 65.1309 18.356 64.0269 18.764C62.9229 19.148 61.9749 19.688 61.1829 20.384L60.0309 18.476C60.9909 17.66 62.1429 17.036 63.4869 16.604C64.8309 16.148 66.2469 15.92 67.7349 15.92ZM66.8349 33.164C68.2749 33.164 69.5109 32.84 70.5429 32.192C71.5749 31.52 72.3429 30.56 72.8469 29.312V26.216H66.9069C63.6669 26.216 62.0469 27.344 62.0469 29.6C62.0469 30.704 62.4669 31.58 63.3069 32.228C64.1469 32.852 65.3229 33.164 66.8349 33.164ZM93.9933 15.92C96.3693 15.92 98.2533 16.616 99.6453 18.008C101.061 19.376 101.769 21.38 101.769 24.02V35H99.2133V24.272C99.2133 22.304 98.7213 20.804 97.7373 19.772C96.7533 18.74 95.3493 18.224 93.5253 18.224C91.4853 18.224 89.8653 18.836 88.6653 20.06C87.4893 21.26 86.9013 22.928 86.9013 25.064V35H84.3453V8.288H86.9013V19.376C87.5973 18.272 88.5573 17.42 89.7812 16.82C91.0053 16.22 92.4093 15.92 93.9933 15.92Z" fill="#33323D"/>
<path d="M11.64 84.18C10.104 84.18 8.628 83.964 7.212 83.532C5.82 83.076 4.728 82.512 3.936 81.84L5.088 79.824C5.88 80.448 6.876 80.964 8.076 81.372C9.276 81.756 10.524 81.948 11.82 81.948C13.548 81.948 14.82 81.684 15.636 81.156C16.476 80.604 16.896 79.836 16.896 78.852C16.896 78.156 16.668 77.616 16.212 77.232C15.756 76.824 15.18 76.524 14.484 76.332C13.788 76.116 12.864 75.912 11.712 75.72C10.176 75.432 8.94 75.144 8.004 74.856C7.068 74.544 6.264 74.028 5.592 73.308C4.944 72.588 4.62 71.592 4.62 70.32C4.62 68.736 5.28 67.44 6.6 66.432C7.92 65.424 9.756 64.92 12.108 64.92C13.332 64.92 14.556 65.088 15.78 65.424C17.004 65.736 18.012 66.156 18.804 66.684L17.688 68.736C16.128 67.656 14.268 67.116 12.108 67.116C10.476 67.116 9.24 67.404 8.4 67.98C7.584 68.556 7.176 69.312 7.176 70.248C7.176 70.968 7.404 71.544 7.86 71.976C8.34 72.408 8.928 72.732 9.624 72.948C10.32 73.14 11.28 73.344 12.504 73.56C14.016 73.848 15.228 74.136 16.14 74.424C17.052 74.712 17.832 75.204 18.48 75.9C19.128 76.596 19.452 77.556 19.452 78.78C19.452 80.436 18.756 81.756 17.364 82.74C15.996 83.7 14.088 84.18 11.64 84.18Z" fill="#33323D"/>
<path d="M44.188 64.92C46.66 64.92 48.556 65.544 49.876 66.792C51.196 68.016 51.856 69.84 51.856 72.264V84H49.408V81.048C48.832 82.032 47.98 82.8 46.852 83.352C45.748 83.904 44.428 84.18 42.892 84.18C40.78 84.18 39.1 83.676 37.852 82.668C36.604 81.66 35.98 80.328 35.98 78.672C35.98 77.064 36.556 75.768 37.708 74.784C38.884 73.8 40.744 73.308 43.288 73.308H49.3V72.156C49.3 70.524 48.844 69.288 47.932 68.448C47.02 67.584 45.688 67.152 43.936 67.152C42.736 67.152 41.584 67.356 40.48 67.764C39.376 68.148 38.428 68.688 37.636 69.384L36.484 67.476C37.444 66.66 38.596 66.036 39.94 65.604C41.284 65.148 42.7 64.92 44.188 64.92ZM43.288 82.164C44.728 82.164 45.964 81.84 46.996 81.192C48.028 80.52 48.796 79.56 49.3 78.312V75.216H43.36C40.12 75.216 38.5 76.344 38.5 78.6C38.5 79.704 38.92 80.58 39.76 81.228C40.6 81.852 41.776 82.164 43.288 82.164ZM77.8624 65.064V84H75.4144V80.544C74.7424 81.696 73.8184 82.596 72.6424 83.244C71.4664 83.868 70.1224 84.18 68.6104 84.18C66.1384 84.18 64.1824 83.496 62.7424 82.128C61.3264 80.736 60.6184 78.708 60.6184 76.044V65.064H63.1744V75.792C63.1744 77.784 63.6664 79.296 64.6504 80.328C65.6344 81.36 67.0384 81.876 68.8624 81.876C70.8544 81.876 72.4264 81.276 73.5784 80.076C74.7304 78.852 75.3064 77.16 75.3064 75V65.064H77.8624ZM104.553 65.064V81.696C104.553 84.912 103.761 87.288 102.177 88.824C100.617 90.384 98.253 91.164 95.085 91.164C93.333 91.164 91.665 90.9 90.081 90.372C88.521 89.868 87.249 89.16 86.265 88.248L87.561 86.304C88.473 87.12 89.577 87.756 90.873 88.212C92.193 88.668 93.573 88.896 95.013 88.896C97.413 88.896 99.177 88.332 100.305 87.204C101.433 86.1 101.997 84.372 101.997 82.02V79.608C101.205 80.808 100.161 81.72 98.865 82.344C97.593 82.968 96.177 83.28 94.617 83.28C92.841 83.28 91.221 82.896 89.757 82.128C88.317 81.336 87.177 80.244 86.337 78.852C85.521 77.436 85.113 75.84 85.113 74.064C85.113 72.288 85.521 70.704 86.337 69.312C87.177 67.92 88.317 66.84 89.757 66.072C91.197 65.304 92.817 64.92 94.617 64.92C96.225 64.92 97.677 65.244 98.973 65.892C100.269 66.54 101.313 67.476 102.105 68.7V65.064H104.553ZM94.869 81.012C96.237 81.012 97.473 80.724 98.577 80.148C99.681 79.548 100.533 78.72 101.133 77.664C101.757 76.608 102.069 75.408 102.069 74.064C102.069 72.72 101.757 71.532 101.133 70.5C100.533 69.444 99.681 68.628 98.577 68.052C97.497 67.452 96.261 67.152 94.869 67.152C93.501 67.152 92.265 67.44 91.161 68.016C90.081 68.592 89.229 69.408 88.605 70.464C88.005 71.52 87.705 72.72 87.705 74.064C87.705 75.408 88.005 76.608 88.605 77.664C89.229 78.72 90.081 79.548 91.161 80.148C92.265 80.724 93.501 81.012 94.869 81.012ZM123.349 64.92C125.725 64.92 127.609 65.616 129.001 67.008C130.417 68.376 131.125 70.38 131.125 73.02V84H128.569V73.272C128.569 71.304 128.077 69.804 127.093 68.772C126.109 67.74 124.705 67.224 122.881 67.224C120.841 67.224 119.221 67.836 118.021 69.06C116.845 70.26 116.257 71.928 116.257 74.064V84H113.701V57.288H116.257V68.376C116.953 67.272 117.913 66.42 119.137 65.82C120.361 65.22 121.765 64.92 123.349 64.92ZM150.036 82.848C149.556 83.28 148.956 83.616 148.236 83.856C147.54 84.072 146.808 84.18 146.04 84.18C144.264 84.18 142.896 83.7 141.936 82.74C140.976 81.78 140.496 80.424 140.496 78.672V67.224H137.112V65.064H140.496V60.924H143.052V65.064H148.812V67.224H143.052V78.528C143.052 79.656 143.328 80.52 143.88 81.12C144.456 81.696 145.272 81.984 146.328 81.984C146.856 81.984 147.36 81.9 147.84 81.732C148.344 81.564 148.776 81.324 149.136 81.012L150.036 82.848ZM172.509 75.324H156.669C156.813 77.292 157.569 78.888 158.937 80.112C160.305 81.312 162.033 81.912 164.121 81.912C165.297 81.912 166.377 81.708 167.361 81.3C168.345 80.868 169.197 80.244 169.917 79.428L171.357 81.084C170.517 82.092 169.461 82.86 168.189 83.388C166.941 83.916 165.561 84.18 164.049 84.18C162.105 84.18 160.377 83.772 158.865 82.956C157.377 82.116 156.213 80.964 155.373 79.5C154.533 78.036 154.113 76.38 154.113 74.532C154.113 72.684 154.509 71.028 155.301 69.564C156.117 68.1 157.221 66.96 158.613 66.144C160.029 65.328 161.613 64.92 163.365 64.92C165.117 64.92 166.689 65.328 168.081 66.144C169.473 66.96 170.565 68.1 171.357 69.564C172.149 71.004 172.545 72.66 172.545 74.532L172.509 75.324ZM163.365 67.116C161.541 67.116 160.005 67.704 158.757 68.88C157.533 70.032 156.837 71.544 156.669 73.416H170.097C169.929 71.544 169.221 70.032 167.973 68.88C166.749 67.704 165.213 67.116 163.365 67.116ZM182.196 68.772C182.796 67.5 183.684 66.54 184.86 65.892C186.06 65.244 187.536 64.92 189.288 64.92V67.404L188.676 67.368C186.684 67.368 185.124 67.98 183.996 69.204C182.868 70.428 182.304 72.144 182.304 74.352V84H179.748V65.064H182.196V68.772Z" fill="#33323D"/>
<line x1="28.25" y1="8" x2="28.25" y2="86" stroke="#33323D" stroke-width="2.5"/>
</svg>
